<svg width="109" height="110" viewBox="0 0 109 110" fill="none" xmlns="http://www.w3.org/2000/svg">
<path fill-rule="evenodd" clip-rule="evenodd" d="M89.6747 19.8243C80.2294 20.7072 67.9326 28.3266 55.9816 40.701C54.5342 42.1999 53.3719 43.3428 53.3989 43.241C53.5262 42.7607 54.9249 32.5408 55.2921 29.4102C56.1582 22.0215 56.3343 16.0248 55.712 15.0993C55.4557 14.7176 54.8652 14.6569 52.5575 14.7744C36.8505 15.5742 24.3563 23.1858 16.4409 36.7771C12.2265 44.0142 9.20907 53.0748 8.01309 62.0859L7.70264 64.4257L9.20569 61.067C16.6335 44.4701 26.6019 33.3679 37.9747 29.0263C40.9756 27.8806 45.8628 26.9017 47.5459 27.1092C48.5716 27.2356 48.5837 27.2543 48.833 29.0881C49.6205 34.8819 48.302 45.3617 45.3051 57.1253L43.949 62.448L46.4232 58.819C55.5448 45.4393 65.429 36.7504 74.0018 34.5754C76.2376 34.008 78.9855 33.794 79.1908 34.1711C79.2421 34.2648 78.7208 35.5329 78.0327 36.989C76.2825 40.6927 73.6422 48.8981 73.2806 51.7578C71.8701 62.9159 78.4738 64.6544 93.7927 57.1584C99.2798 54.4732 99.2423 54.5075 96.5708 54.6299C94.9523 54.7044 93.5257 54.5308 91.3101 53.99C88.3412 53.2654 88.2346 53.2151 86.7379 51.8391C83.1623 48.5521 82.8053 43.1182 85.6168 34.7731C87.2267 29.9955 90.382 23.1854 92.3415 20.2605C92.7513 19.6486 92.3154 19.5775 89.6747 19.8243ZM35.2611 37.9776C33.8613 38.2675 31.3436 39.7449 29.1966 41.5368C27.3167 43.106 22.7681 47.6138 21.6199 49.0461L20.8305 50.0308L22.7064 48.8536C27.4074 45.9042 29.3649 48.3569 28.6734 56.3304C28.1925 61.8783 27.2669 65.8976 23.5035 78.7829L19.9006 91.119L21.0873 90.23C28.4013 84.7509 40.8135 73.7147 46.2128 67.8898C47.4428 66.5628 48.4799 65.5347 48.5177 65.605C48.5553 65.6752 47.9292 67.5723 47.1265 69.8206C45.6357 73.9948 44.3383 79.3452 44.1728 82.0009C43.9609 85.3962 44.8221 87.5718 46.5815 88.0857C47.9243 88.4778 51.5989 87.8105 55.0039 86.5561C58.6185 85.2244 68.2317 79.9177 73.4934 76.3494C80.3713 71.6854 91.0041 63.5806 97.4119 58.1182L99.5356 56.3079L96.8497 57.954C88.9142 62.8177 80.8932 66.9603 74.3548 69.5724C66.9765 72.5201 56.0649 75.3075 55.7718 74.3195C55.5252 73.4892 55.5341 69.3048 55.7869 67.0763C56.3637 61.9933 59.3925 53.8819 62.69 48.589C63.3051 47.6014 63.7886 46.757 63.7644 46.7126C63.7402 46.6681 61.9988 48.6183 59.8948 51.0466C48.2671 64.4666 38.139 74.68 34.6472 76.5069C33.7089 76.9979 33.6137 76.9956 33.5685 76.4805C33.541 76.1695 34.4168 72.418 35.5147 68.1433C39.9882 50.7222 40.8386 42.598 38.5509 39.1435C37.7833 37.9844 36.8412 37.6506 35.2611 37.9776Z" fill="#141414"/>
</svg>
