<svg width="99" height="81" viewBox="0 0 99 81" fill="none" xmlns="http://www.w3.org/2000/svg">
<path d="M83.1951 68.4977L83.1264 68.6666L83.2722 68.7759C84.2428 69.5038 86.2184 70.1987 88.9447 70.1987C91.131 70.1987 93.1488 69.6379 94.626 68.5096C96.1104 67.3757 97.0329 65.6799 97.0329 63.4574C97.0329 61.0354 95.4486 59.3971 93.0694 58.1488C92.2483 57.6878 91.5697 57.2986 91.0936 56.8911C90.6221 56.4873 90.3847 56.0957 90.3847 55.6343C90.3847 54.7591 91.2195 53.8361 93.0712 53.8361V53.8361L93.0754 53.836C94.6289 53.8083 95.9639 54.337 96.5686 54.6669L96.8076 54.7973L96.9032 54.5424L98.1927 51.1036L98.2645 50.9123L98.0856 50.8136C97.2179 50.3349 95.8028 49.8099 93.4151 49.8099C91.2667 49.8099 89.3067 50.4162 87.8782 51.5367C86.445 52.6609 85.5561 54.297 85.5561 56.322C85.5561 58.9901 87.6254 60.54 89.6918 61.6593L89.6918 61.6593L89.696 61.6615C90.5807 62.1182 91.2049 62.5128 91.6073 62.9153C92.0005 63.3084 92.1757 63.702 92.1757 64.1738C92.1757 64.8444 91.8583 65.3405 91.3499 65.6783C90.8332 66.0217 90.116 66.2012 89.3459 66.2012C87.6151 66.2012 86.0234 65.67 84.9112 65.0027L84.6746 64.8607L84.5706 65.1163L83.1951 68.4977Z" fill="#141414" stroke="#141414" stroke-width="0.472815"/>
<path fill-rule="evenodd" clip-rule="evenodd" d="M15.0062 59.0469L55.2905 0V49.2057H65.1302V57.533L71.8961 49.2057H83.2983L75.7282 59.0468H55.2905V81H45.4494V59.0468H27.0016L27.0015 59.0469H15.0062ZM11.9074 63.5889L0.0288086 81H12.141L23.9269 63.5889H11.9074ZM33.6632 49.2057H45.4494V31.7944L33.6632 49.2057Z" fill="#141414"/>
</svg>
