<svg width="101" height="75" viewBox="0 0 101 75" fill="none" xmlns="http://www.w3.org/2000/svg">
<path d="M100.573 0.262228L0.960451 17.453L1.03874 74.4146L100.652 57.2804L100.573 0.262228Z" fill="white"/>
<path d="M100.573 0.262228L0.960451 17.453L1.03874 74.4146L100.652 57.2804L100.573 0.262228Z" stroke="#141414"/>
<path fill-rule="evenodd" clip-rule="evenodd" d="M100.068 0.279838C100.052 0.29585 99.8619 0.334587 99.6461 0.36592C99.4302 0.397308 98.9737 0.474887 98.6316 0.538317C98.2896 0.601803 97.8697 0.674613 97.6987 0.700221C97.5276 0.725773 97.235 0.775034 97.0484 0.809657C96.3166 0.945356 94.9692 1.18395 94.4756 1.26524C93.9999 1.34357 93.2385 1.4782 92.8923 1.54524C92.7212 1.57835 92.505 1.61734 92.4117 1.63196C91.9154 1.70948 91.1807 1.84152 90.8567 1.91137C90.6545 1.9549 90.4255 1.99052 90.3477 1.99046C90.27 1.9904 90.041 2.02603 89.8388 2.06956C89.6367 2.11314 89.2296 2.18982 88.9341 2.24003C88.6387 2.29018 88.2697 2.3557 88.1142 2.38562C87.9587 2.41554 87.6661 2.46718 87.4639 2.50038C87.2618 2.53359 86.8928 2.59583 86.644 2.63876C86.3952 2.68163 86.0417 2.74075 85.8584 2.7702C85.6752 2.79966 85.408 2.84872 85.2647 2.87934C85.1214 2.9099 84.7752 2.97373 84.4953 3.02108C84.2154 3.06844 83.7701 3.14478 83.5058 3.19078C82.3691 3.38833 80.66 3.68311 80.0847 3.78078C79.7426 3.83888 79.0174 3.9648 78.4732 4.0606C77.9289 4.15635 77.331 4.25738 77.1444 4.28501C76.9578 4.31264 76.5252 4.3883 76.1831 4.45312C75.841 4.51793 75.4212 4.59296 75.2501 4.61985C75.079 4.64673 74.7228 4.70657 74.4585 4.7528C74.1941 4.79902 73.752 4.87564 73.476 4.9231C73.2001 4.9705 72.9329 5.022 72.8823 5.03756C72.8318 5.05307 72.625 5.09138 72.4228 5.1227C72.2207 5.15401 71.839 5.21711 71.5746 5.26294C71.3103 5.30878 70.9413 5.37136 70.7547 5.40198C70.5681 5.43261 70.2882 5.4823 70.1327 5.51232C69.9772 5.54241 69.6083 5.60804 69.3128 5.65819C69.0174 5.7084 68.6102 5.78508 68.4081 5.82866C68.206 5.87219 67.977 5.90782 67.8992 5.90776C67.8214 5.9077 67.5924 5.94316 67.3903 5.98658C66.8855 6.09503 66.3423 6.19711 66.0049 6.24704C65.5963 6.30745 64.7789 6.44727 64.2237 6.55169C63.9594 6.60141 63.5697 6.66529 63.3578 6.69362C63.1458 6.72201 62.9467 6.76087 62.9152 6.78001C62.8837 6.79915 62.7009 6.83643 62.5089 6.86285C62.3169 6.88926 61.8672 6.96344 61.5096 7.02767C61.1519 7.0919 60.7193 7.16673 60.5483 7.19395C60.3772 7.22117 60.0147 7.28285 59.7425 7.33108C58.4017 7.56855 58.3439 7.57851 56.166 7.94733C55.6995 8.02631 55.2033 8.11377 55.0634 8.14162C54.9234 8.16951 54.5417 8.23439 54.2152 8.28575C53.8886 8.33716 53.5069 8.40509 53.367 8.43665C53.227 8.46827 52.9726 8.51476 52.8015 8.54003C52.4733 8.58856 51.7574 8.70992 51.19 8.81324C50.8019 8.88395 50.0225 9.02416 49.6067 9.09813C49.4512 9.12577 49.0186 9.19998 48.6454 9.26307C48.2722 9.32615 47.8397 9.4017 47.6842 9.43101C47.5287 9.46031 47.1597 9.5255 46.8643 9.57593C46.5688 9.62636 46.149 9.70195 45.9313 9.74394C45.7136 9.78588 45.4464 9.83294 45.3375 9.84847C45.2287 9.864 44.8597 9.92936 44.5176 9.99362C44.1755 10.0579 43.743 10.1344 43.5564 10.1638C43.3698 10.1931 43.0135 10.2526 42.7647 10.2961C42.5159 10.3395 42.0833 10.415 41.8034 10.4637C41.5235 10.5124 41.091 10.59 40.8422 10.6361C40.5934 10.6821 40.2008 10.7465 39.9699 10.779C39.7389 10.8115 39.5334 10.8482 39.513 10.8605C39.4927 10.8729 39.3 10.9098 39.0848 10.9426C38.8695 10.9753 38.5789 11.0271 38.439 11.0577C38.2991 11.0883 37.6502 11.2014 36.9971 11.3089C36.344 11.4164 35.517 11.5557 35.1593 11.6184C33.2194 11.9584 31.5938 12.2356 31.2088 12.2921C31.0108 12.3212 30.8274 12.358 30.8011 12.3739C30.7749 12.3899 30.5934 12.4256 30.3977 12.4533C30.0407 12.5037 29.3744 12.6153 28.7414 12.7305C28.207 12.8279 27.467 12.9606 27.1582 13.0144C27.0027 13.0416 26.6719 13.1014 26.4231 13.1474C26.1743 13.1934 25.8562 13.2467 25.7162 13.2658C25.5763 13.2849 25.3473 13.3236 25.2073 13.3518C25.0674 13.3799 24.7112 13.4436 24.4157 13.4935C24.1202 13.5433 23.7131 13.6197 23.511 13.6633C23.3088 13.7068 23.0798 13.7424 23.0021 13.7424C22.9243 13.7423 22.6953 13.7779 22.4931 13.8214C22.291 13.865 21.8839 13.9417 21.5884 13.9919C21.293 14.0421 20.924 14.1071 20.7685 14.1366C20.253 14.234 19.1419 14.4239 18.4897 14.526C18.3248 14.5518 18.0703 14.5989 17.9242 14.6305C17.7781 14.6621 17.4804 14.7174 17.2627 14.7532C17.045 14.789 16.676 14.8532 16.4428 14.8959C16.2096 14.9385 15.866 14.9974 15.6794 15.0268C15.4928 15.0561 14.8949 15.1581 14.3506 15.2535C13.0904 15.4742 12.1527 15.6352 11.7212 15.7049C11.5346 15.735 11.1784 15.7973 10.9296 15.8432C10.4456 15.9326 10.1652 15.9808 9.31804 16.1202C9.02259 16.1688 8.59002 16.2449 8.35677 16.2892C8.12353 16.3336 7.85635 16.3803 7.76304 16.393C7.66974 16.4057 7.44073 16.4444 7.25413 16.479C6.81127 16.561 6.1355 16.6821 5.50123 16.7932C4.73368 16.9277 4.47205 16.9739 3.94623 17.0674C3.68189 17.1145 3.23659 17.1921 2.95669 17.2399C2.67679 17.2878 2.24421 17.3633 1.99542 17.4078C1.74662 17.4522 1.43459 17.5042 1.30199 17.5233C1.1514 17.5449 1.04 17.5964 1.00519 17.6605C0.968629 17.7278 0.967848 27.6121 1.00297 46.3735L1.05649 74.984L1.33928 74.9819C1.49481 74.9808 1.76201 74.9508 1.93306 74.9153C2.31845 74.8351 2.88854 74.7332 3.26187 74.6775C3.41737 74.6544 3.84995 74.5794 4.22314 74.5109C4.59634 74.4424 5.04163 74.3643 5.21269 74.3375C5.54383 74.2855 7.42578 73.9601 9.76461 73.5505C10.2933 73.4579 10.8786 73.3596 11.0652 73.3321C11.2518 73.3046 11.6843 73.229 12.0264 73.1642C12.3685 73.0994 12.7884 73.0248 12.9594 72.9985C13.1305 72.9721 13.4931 72.9103 13.7651 72.8609C14.0371 72.8116 14.4824 72.7317 14.7546 72.6833C15.0268 72.6349 15.4531 72.5587 15.7019 72.5137C15.9507 72.4689 16.3069 72.4093 16.4935 72.3814C16.6801 72.3535 17.1127 72.2777 17.4548 72.2129C17.7969 72.1481 18.2167 72.0742 18.3878 72.0487C18.5589 72.0232 18.8515 71.9731 19.0381 71.9375C19.7698 71.7979 20.8013 71.614 21.724 71.4587C22.0194 71.409 22.3884 71.3455 22.5439 71.3176C22.6994 71.2897 23.0683 71.2257 23.3638 71.1753C23.6593 71.1248 24.0791 71.0499 24.2968 71.0087C24.911 70.8925 25.4012 70.8063 25.7104 70.7602C25.8659 70.7371 26.2985 70.6621 26.6717 70.5936C27.0449 70.5251 27.4902 70.447 27.6612 70.4202C27.8323 70.3933 28.4048 70.2957 28.9335 70.2031C30.5181 69.9258 30.8117 69.8751 31.8739 69.6948C32.4337 69.5998 32.9299 69.5112 32.9765 69.4979C33.0232 69.4846 33.2395 69.448 33.4572 69.4167C33.6749 69.3854 34.1329 69.308 34.475 69.2447C34.8171 69.1814 35.2497 69.1056 35.4363 69.0762C35.6229 69.0468 35.9791 68.9851 36.2279 68.9391C36.4767 68.893 36.8457 68.8299 37.0478 68.7988C37.25 68.7676 37.4505 68.7295 37.4934 68.7139C37.5642 68.6883 38.1561 68.5873 38.9704 68.4619C39.1414 68.4356 39.5613 68.3609 39.9034 68.2959C40.2455 68.2309 40.6653 68.1563 40.8364 68.1301C41.0074 68.1039 41.4273 68.0286 41.7694 67.9626C42.1114 67.8966 42.544 67.8198 42.7306 67.7919C42.9172 67.764 43.2735 67.7044 43.5223 67.6594C43.7711 67.6144 44.14 67.5507 44.3422 67.518C44.5443 67.4852 44.837 67.4339 44.9925 67.404C45.1479 67.3741 45.5169 67.3085 45.8124 67.2584C46.1078 67.2082 46.5149 67.1315 46.7171 67.0879C46.9192 67.0444 47.1611 67.0087 47.2547 67.0086C47.3482 67.0086 47.5136 66.9818 47.6222 66.949C47.7308 66.9163 47.9724 66.8673 48.159 66.8401C48.3456 66.8129 48.7782 66.7389 49.1203 66.6756C49.4624 66.6123 49.8949 66.5367 50.0815 66.5076C50.2681 66.4784 51.0824 66.3391 51.891 66.1978C54.232 65.7889 55.599 65.552 55.934 65.4971C56.8102 65.3535 57.2578 65.2742 57.3428 65.2475C57.3947 65.2313 57.6142 65.1926 57.8307 65.1617C58.0471 65.1307 58.4277 65.068 58.6765 65.0223C58.9253 64.9766 59.3451 64.9025 59.6095 64.8576C59.8738 64.8127 60.3064 64.7365 60.5707 64.6883C60.8351 64.6402 61.2041 64.5785 61.3907 64.5513C61.5773 64.5242 61.8444 64.4767 61.9844 64.4457C62.1243 64.4148 62.4933 64.3476 62.8043 64.2964C63.3368 64.2087 63.6992 64.143 64.5006 63.989C64.6872 63.9531 64.9926 63.9014 65.1792 63.8739C65.3658 63.8465 65.7347 63.7835 65.9991 63.7337C66.6435 63.6126 67.362 63.49 67.8027 63.4261C68.0016 63.3972 68.2083 63.3598 68.2622 63.3429C68.3873 63.3038 69.2534 63.153 69.7311 63.0871C69.9333 63.0593 70.1368 63.0213 70.1835 63.0027C70.2301 62.984 70.4209 62.9473 70.6075 62.9211C70.7941 62.8948 71.2267 62.8216 71.5688 62.7583C71.9109 62.695 72.3435 62.6197 72.5301 62.591C72.7167 62.5624 73.1493 62.4882 73.4914 62.4263C73.8335 62.3643 74.5714 62.2351 75.1312 62.139C75.691 62.043 76.5816 61.8895 77.1103 61.7978C77.639 61.7062 78.2115 61.6085 78.3826 61.5807C78.5536 61.5529 78.9989 61.4766 79.3721 61.4112C79.7453 61.3457 80.1779 61.271 80.3334 61.2452C80.4889 61.2192 80.8451 61.1557 81.125 61.1038C81.4049 61.052 81.7103 60.9971 81.8036 60.9819C81.8969 60.9667 82.3167 60.8916 82.7366 60.8152C83.1564 60.7387 83.6526 60.6555 83.8392 60.6304C84.0258 60.6052 84.293 60.5594 84.4329 60.5284C84.5729 60.4975 84.9418 60.4303 85.2528 60.3791C85.5639 60.3279 85.9964 60.2522 86.2141 60.211C86.4318 60.1697 86.8517 60.095 87.1471 60.045C87.4426 59.9949 87.7988 59.9301 87.9387 59.9009C88.0787 59.8718 88.3586 59.821 88.5607 59.7882C88.7629 59.7553 89.1573 59.6898 89.4372 59.6426C89.7171 59.5954 90.0988 59.5332 90.2854 59.5044C90.472 59.4757 90.6661 59.4393 90.7166 59.4236C90.8185 59.3919 91.6541 59.2429 92.0948 59.1778C92.2503 59.1548 92.543 59.1048 92.7451 59.0667C93.2499 58.9714 93.8601 58.8635 94.498 58.7565C94.7935 58.7069 95.1624 58.6429 95.3179 58.6142C95.8584 58.5144 98.0412 58.1395 99.5469 57.8878C100.069 57.8006 100.533 57.6988 100.579 57.6617C100.651 57.6027 100.655 54.0207 100.608 28.9387L100.554 0.283056L100.326 0.26688C100.2 0.258003 100.084 0.263825 100.068 0.279838ZM99.4063 29.1791L99.4441 56.6855L99.2745 56.7314C99.1812 56.7566 98.9649 56.8009 98.7939 56.8298C98.443 56.8891 97.3404 57.0855 96.7017 57.2025C96.4684 57.2453 96.1085 57.3045 95.9017 57.3343C95.695 57.3641 95.4151 57.413 95.2797 57.443C95.1444 57.473 94.7919 57.5374 94.4964 57.586C94.201 57.6346 93.5267 57.7494 92.9979 57.8411C91.3556 58.126 90.7788 58.2255 89.4356 58.4557C86.638 58.9353 86.3287 58.9892 85.7318 59.1013C85.4986 59.1451 85.2314 59.192 85.1381 59.2054C85.0448 59.2189 84.7395 59.2712 84.4596 59.3217C83.9721 59.4097 83.6128 59.4726 82.5229 59.6609C82.2508 59.7078 81.8118 59.7856 81.5475 59.8337C81.2831 59.8818 80.9269 59.9414 80.7558 59.9661C80.5848 59.9908 80.3303 60.0365 80.1904 60.0675C80.0504 60.0987 79.6815 60.166 79.3705 60.2172C79.0595 60.2684 78.6269 60.3441 78.4092 60.3853C78.1915 60.4266 77.7844 60.4995 77.5045 60.5474C77.2246 60.5953 76.7793 60.6718 76.5149 60.7174C76.2506 60.763 75.7926 60.8412 75.4971 60.8912C75.2017 60.9413 74.8581 61.0047 74.7338 61.0321C74.6094 61.0596 74.3931 61.0969 74.2531 61.1151C74.1132 61.1333 73.8842 61.1709 73.7442 61.1987C73.6043 61.2265 73.267 61.2878 72.9948 61.3349C72.7226 61.382 72.2773 61.4598 72.0053 61.5079C71.7332 61.556 71.3707 61.6188 71.1997 61.6475C71.0286 61.6762 70.6088 61.7484 70.2667 61.8079C69.2927 61.9775 68.3945 62.1319 66.987 62.3717C64.7989 62.7447 64.6247 62.7752 64.2334 62.8554C64.0251 62.8981 63.7753 62.9331 63.6783 62.9332C63.5813 62.9333 63.4559 62.9577 63.3997 62.9873C63.3435 63.017 63.1225 63.0651 62.9087 63.0942C62.6949 63.1233 62.2973 63.1874 62.0252 63.2367C61.7532 63.286 61.3143 63.3638 61.0498 63.4095C60.7854 63.4553 60.3528 63.5301 60.0884 63.5759C59.8239 63.6216 59.385 63.6994 59.1129 63.7488C58.8409 63.7981 58.4783 63.8587 58.3073 63.8834C58.1362 63.9081 57.8818 63.9538 57.7418 63.9848C57.6019 64.0159 57.2329 64.0832 56.9219 64.1345C56.3917 64.2218 56.1019 64.2743 55.1973 64.4473C54.9952 64.486 54.7025 64.5364 54.547 64.5594C54.3915 64.5824 54.0226 64.6435 53.7271 64.6952C53.4317 64.7469 52.9991 64.8224 52.7658 64.8629C52.5326 64.9034 52.1127 64.9777 51.8328 65.0281C51.5529 65.0785 51.1625 65.1442 50.9652 65.1741C50.7679 65.204 50.5007 65.2519 50.3715 65.2804C50.2422 65.3089 49.882 65.3737 49.571 65.4244C49.26 65.4751 48.891 65.5394 48.7511 65.5672C48.6112 65.595 48.1022 65.6817 47.6202 65.7597C47.1381 65.8378 46.5529 65.9374 46.3196 65.9811C46.0864 66.0247 45.2849 66.1631 44.5384 66.2887C43.792 66.4142 42.9905 66.5518 42.7573 66.5944C42.524 66.637 42.0787 66.7134 41.7677 66.7643C41.4567 66.8151 41.0877 66.883 40.9478 66.9152C40.8079 66.9473 40.5534 66.994 40.3824 67.0189C40.2113 67.0438 39.8487 67.1046 39.5767 67.1539C38.9553 67.2666 38.186 67.4005 37.7813 67.4665C37.6102 67.4944 37.1904 67.5699 36.8483 67.6343C36.5062 67.6987 36.0736 67.7728 35.887 67.7988C35.7004 67.8249 35.4332 67.8715 35.2933 67.9025C35.1533 67.9334 34.7844 68.0005 34.4734 68.0518C33.9432 68.1391 33.6533 68.1916 32.7487 68.3646C32.5466 68.4033 32.254 68.4537 32.0985 68.4767C31.943 68.4997 31.574 68.5608 31.2785 68.6125C30.9831 68.6642 30.5505 68.7397 30.3173 68.7802C30.084 68.8207 29.6642 68.8963 29.3843 68.9483C29.1044 69.0002 28.7354 69.0624 28.5644 69.0863C28.3933 69.1103 28.1134 69.1571 27.9424 69.1903C27.6188 69.2531 27.0301 69.3575 26.1612 69.506C25.8813 69.5539 25.1561 69.6788 24.5496 69.7838C23.9432 69.8887 22.989 70.0522 22.4292 70.1472C21.2547 70.3464 20.8957 70.4084 20.3087 70.5133C20.0755 70.555 19.6302 70.6307 19.3191 70.6816C19.0081 70.7324 18.6392 70.8003 18.4992 70.8325C18.3593 70.8646 18.1049 70.9113 17.9338 70.9362C17.4815 71.0021 16.6342 71.1517 16.5273 71.1845C16.4767 71.2 16.27 71.2384 16.0678 71.2697C15.7045 71.3259 15.2205 71.4081 14.2301 71.5818C13.9502 71.6309 13.5812 71.693 13.4102 71.7199C13.2391 71.7468 12.8193 71.8219 12.4772 71.8869C12.1351 71.9519 11.7152 72.0259 11.5442 72.0514C11.2216 72.0995 10.7592 72.1846 10.2719 72.2854C10.1164 72.3176 9.83651 72.3659 9.6499 72.3927C9.46329 72.4196 9.09433 72.4806 8.82998 72.5283C8.56563 72.576 8.13306 72.6526 7.86871 72.6985C7.60436 72.7444 7.18451 72.8196 6.93572 72.8657C6.68692 72.9117 6.31422 72.9737 6.10748 73.0035C5.90075 73.0333 5.62085 73.0822 5.48548 73.1122C5.35012 73.1422 4.9849 73.2089 4.6739 73.2604C4.36289 73.3118 3.93032 73.3873 3.71262 73.428C2.96855 73.5674 2.39775 73.639 2.30585 73.6046C2.2213 73.5728 2.21101 71.3931 2.17627 46.1149L2.13853 18.6597L2.29396 18.581C2.37948 18.5376 2.62752 18.4754 2.84522 18.4428C3.06293 18.4101 3.39373 18.357 3.58033 18.3247C4.06232 18.2413 4.83207 18.105 5.1636 18.0445C5.3191 18.0161 5.70078 17.9512 6.01178 17.9001C6.32279 17.8491 6.73511 17.772 6.92815 17.7289C7.12112 17.6857 7.33741 17.6504 7.40879 17.6504C7.48011 17.6503 7.70392 17.615 7.90606 17.5718C8.1082 17.5286 8.5026 17.4543 8.7825 17.4067C9.85161 17.225 10.3187 17.1429 10.592 17.0888C10.7474 17.058 11.0401 17.006 11.2422 16.9733C11.7045 16.8986 12.3816 16.7816 12.9669 16.6754C14.1469 16.4613 14.4495 16.4075 14.6067 16.3841C14.7 16.3702 14.9799 16.3227 15.2287 16.2786C15.4775 16.2344 15.9101 16.1593 16.19 16.1116C16.4699 16.0639 16.8388 16.0002 17.0099 15.9702C17.3027 15.9188 17.5732 15.8719 19.2434 15.5834C19.6166 15.5189 20.4309 15.3767 21.0529 15.2674C21.6749 15.1581 22.3237 15.0472 22.4948 15.0211C22.6658 14.9949 23.1111 14.9188 23.4843 14.8521C23.8575 14.7854 24.3028 14.7099 24.4739 14.6845C24.645 14.659 24.8231 14.6231 24.8697 14.6048C24.9163 14.5864 25.1199 14.5474 25.3221 14.518C25.5242 14.4887 25.8932 14.4281 26.142 14.3834C26.9304 14.2417 27.6585 14.1163 27.9797 14.0669C28.1508 14.0405 28.5706 13.9659 28.9127 13.9011C29.2548 13.8362 29.6874 13.7614 29.874 13.7348C30.0606 13.7082 30.3468 13.659 30.5101 13.6257C30.6734 13.5923 30.9405 13.5378 31.1038 13.5044C31.2671 13.4711 31.5534 13.4218 31.74 13.3949C31.9266 13.3681 32.2955 13.3071 32.5599 13.2594C33.0612 13.1689 33.7412 13.0512 34.5107 12.9217C34.7595 12.8798 35.1794 12.8049 35.4437 12.7552C36.1161 12.6289 36.8544 12.4967 37.0552 12.4668C37.1485 12.4529 37.4412 12.4031 37.7055 12.356C38.3166 12.2473 39.059 12.118 39.4584 12.0507C39.6295 12.0219 40.0493 11.9499 40.3914 11.8908C40.7335 11.8317 41.3188 11.7308 41.692 11.6665C42.0652 11.6022 42.8794 11.4603 43.5014 11.3511C44.1234 11.2419 44.7214 11.1401 44.8303 11.1248C45.0677 11.0916 45.8284 10.9592 46.4135 10.8493C46.6468 10.8055 46.914 10.759 47.0073 10.7459C47.1006 10.7329 47.4059 10.6802 47.6858 10.6288C47.9657 10.5775 48.4046 10.499 48.6611 10.4546C48.9176 10.4101 49.3502 10.3344 49.6224 10.2862C49.8946 10.2381 50.2445 10.1795 50.4 10.1559C50.7341 10.1053 51.2645 10.0075 51.8136 9.89526C52.0313 9.85077 52.2678 9.81457 52.3392 9.81486C52.4105 9.81516 52.6268 9.77977 52.8198 9.7362C53.136 9.66481 53.4312 9.61005 54.2168 9.47688C54.3568 9.45315 54.713 9.39164 55.0084 9.34016C56.2285 9.1275 56.4671 9.08681 56.8179 9.03153C57.0201 8.99972 57.2276 8.96074 57.2791 8.9449C57.3306 8.92911 57.5978 8.87983 57.8728 8.83548C58.1478 8.79108 58.5892 8.71435 58.8535 8.66496C59.1179 8.61552 59.4105 8.56365 59.5038 8.54964C59.7267 8.51624 60.5557 8.36992 60.9345 8.29717C61.0993 8.26546 61.3792 8.2181 61.5565 8.19188C61.7337 8.16565 62.1077 8.10378 62.3876 8.05438C62.6675 8.00497 63.1764 7.91616 63.5185 7.857C63.8606 7.79784 64.3696 7.70953 64.6495 7.66068C64.9294 7.61183 65.5909 7.49643 66.1196 7.40421C66.6483 7.31204 67.17 7.22382 67.2788 7.20818C67.3877 7.1926 67.693 7.14165 67.9574 7.09493C68.2217 7.04821 68.6543 6.97283 68.9187 6.92738C69.183 6.88188 69.5232 6.81756 69.6746 6.78438C69.8261 6.75119 70.0932 6.70418 70.2684 6.6799C70.4434 6.65562 70.8157 6.59432 71.0956 6.54368C71.3755 6.49305 71.8081 6.4149 72.0569 6.36997C72.3057 6.3251 72.662 6.26615 72.8486 6.23897C73.0352 6.21178 73.3023 6.16428 73.4423 6.13333C73.5822 6.10243 73.9512 6.03541 74.2622 5.98446C74.5732 5.93351 75.0185 5.85683 75.2517 5.81404C75.914 5.69254 76.5889 5.57435 77.1743 5.47716C77.4697 5.42812 77.8005 5.36648 77.9094 5.34013C78.0182 5.31377 78.2472 5.27537 78.4183 5.25481C78.5893 5.23426 78.8183 5.19652 78.9272 5.17094C79.036 5.14542 79.3795 5.08271 79.6905 5.03159C80.0016 4.98048 80.4214 4.90489 80.6235 4.86358C80.8257 4.82233 81.1056 4.77348 81.2455 4.75513C81.3855 4.73678 81.6145 4.69843 81.7545 4.66993C81.8944 4.64142 82.2506 4.57736 82.5461 4.52759C82.8415 4.47783 83.2996 4.39919 83.5639 4.3528C83.8283 4.30647 84.1845 4.24491 84.3555 4.21614C84.5266 4.18731 84.9465 4.11483 85.2886 4.05512C85.6307 3.99541 86.4449 3.85516 87.098 3.74349C87.7511 3.63183 88.5654 3.49025 88.9075 3.42882C89.2496 3.36738 89.6694 3.29563 89.8405 3.26936C90.0115 3.24308 90.4568 3.16696 90.83 3.10021C91.2032 3.03346 91.6485 2.95801 91.8196 2.93257C91.9906 2.90707 92.1687 2.87163 92.2154 2.85374C92.262 2.83585 92.4529 2.79789 92.6395 2.76943C93.0616 2.70506 93.8375 2.57357 94.5055 2.45317C94.7854 2.40271 95.0907 2.35077 95.184 2.33776C95.3435 2.3155 95.7543 2.23993 96.5411 2.08816C96.7277 2.05215 97.0203 2.00317 97.1914 1.97928C97.6822 1.9107 98.269 1.80296 98.5767 1.72492C98.7322 1.68546 98.974 1.65759 99.114 1.66295L99.3685 1.6727L99.4063 29.1791ZM91.5131 6.26583C91.4198 6.29272 91.2482 6.32955 91.1319 6.3477C90.9753 6.37206 90.9125 6.41251 90.8904 6.50321C90.8739 6.57058 90.872 9.9861 90.8862 14.0932L90.912 21.5607L91.0807 21.5793C91.2307 21.5958 91.7715 21.5143 92.5236 21.3617C92.6636 21.3333 92.9484 21.2842 93.1567 21.2526C93.3649 21.2209 93.5685 21.1825 93.6091 21.1672C93.6496 21.1519 93.8482 21.1166 94.0503 21.0888C94.2525 21.0609 94.6405 20.9978 94.9126 20.9486C95.1846 20.8993 95.6172 20.8235 95.8738 20.7801C96.3925 20.6924 96.5468 20.6457 96.6081 20.5576C96.6309 20.5248 96.6496 20.3199 96.6498 20.1022C96.6503 19.5719 96.6258 19.5557 95.9921 19.6683C95.7164 19.7173 95.3508 19.7789 95.1797 19.8053C95.0087 19.8317 94.7415 19.8777 94.586 19.9074C94.4305 19.9372 94.0488 20.0043 93.7378 20.0565C93.4268 20.1087 93.0085 20.1843 92.8083 20.2246C92.608 20.2648 92.4108 20.2853 92.3702 20.2701C92.31 20.2475 92.2918 18.9408 92.2723 13.2387L92.2483 6.23518L91.9655 6.22613C91.81 6.22112 91.6064 6.239 91.5131 6.26583ZM79.6103 8.34251C79.2837 8.39914 78.908 8.46179 78.7753 8.48168C78.5728 8.51211 78.5297 8.5412 78.5065 8.66299C78.4913 8.74279 78.4409 8.9705 78.3945 9.16905C78.3481 9.3676 78.3104 9.58002 78.3108 9.64109C78.3113 9.70216 78.2755 9.91458 78.2313 10.1131C78.1508 10.4748 78.0116 11.1754 77.9168 11.6959C77.889 11.8486 77.828 12.161 77.7812 12.3901C77.7344 12.6192 77.6568 13.019 77.6088 13.2787C77.5607 13.5383 77.4858 13.9256 77.4422 14.1395C77.3987 14.3533 77.3213 14.7406 77.2704 15.0003C77.2195 15.2599 77.1541 15.5848 77.1252 15.7222C77.0964 15.8597 77.0494 16.1096 77.0209 16.2776C76.9925 16.4456 76.9174 16.8516 76.854 17.18C76.7906 17.5084 76.6869 18.0456 76.6235 18.374C76.5601 18.7024 76.4854 19.096 76.4576 19.2487C76.4298 19.4014 76.327 19.9387 76.2294 20.4427C76.1317 20.9467 76.0316 21.484 76.0068 21.6367C75.9821 21.7894 75.9341 22.0518 75.9002 22.2198C75.8663 22.3878 75.8014 22.7127 75.7561 22.9418C75.7107 23.1709 75.6377 23.5272 75.5938 23.7338C75.4966 24.1911 75.5254 24.3537 75.695 24.3041C75.7606 24.2848 75.989 24.2433 76.2025 24.2118C76.7173 24.1359 76.8521 24.0797 76.8838 23.9277C76.9481 23.6186 77.0278 23.2088 77.1135 22.7456C77.1643 22.4707 77.242 22.0907 77.286 21.9011C77.33 21.7116 77.3662 21.4867 77.3665 21.4013C77.3667 21.316 77.4046 21.1235 77.4507 20.9735C77.4968 20.8236 77.5345 20.6236 77.5344 20.5292C77.5343 20.4349 77.5786 20.2708 77.6329 20.1646C77.7378 19.9594 77.7816 19.9419 78.4666 19.8327C78.8056 19.7787 79.1691 19.7167 80.4457 19.4952L81.1242 19.3774L81.2234 19.4963C81.2779 19.5617 81.3226 19.6938 81.3228 19.7898C81.3229 19.8859 81.3502 20.0517 81.3834 20.1584C81.4166 20.265 81.467 20.4771 81.4953 20.6298C81.5793 21.082 81.7038 21.7184 81.7722 22.0452C81.9004 22.6576 81.9417 22.8531 81.9747 23.0026C82.0152 23.187 82.0975 23.1933 82.7934 23.0663C83.343 22.9659 83.4635 22.8932 83.3685 22.7193C83.3342 22.6568 83.3061 22.5493 83.306 22.4806C83.3059 22.4118 83.2695 22.2041 83.225 22.019C83.1805 21.8339 83.1027 21.4826 83.0522 21.2384C82.9529 20.7587 82.8293 20.1739 82.7062 19.601C82.6636 19.4026 82.5893 19.0529 82.5412 18.8239C82.4375 18.3302 82.3251 17.7954 82.1971 17.1865C82.1457 16.9423 82.0806 16.6426 82.0523 16.5205C82.0241 16.3984 81.9859 16.2111 81.9673 16.1042C81.9334 15.909 81.8986 15.7396 81.7453 15.0219C81.6997 14.8082 81.6203 14.4335 81.569 14.1893C81.5176 13.9451 81.4374 13.5704 81.3908 13.3567C81.196 12.4636 81.148 12.2382 81.1187 12.0801C80.8953 10.8721 80.3352 8.35673 80.2783 8.30595C80.2204 8.25417 80.0731 8.2622 79.6103 8.34251ZM79.5375 10.4767C79.5738 10.6268 79.6346 10.9121 79.6726 11.1105C79.7107 11.3089 79.7779 11.6586 79.8221 11.8876C79.8664 12.1166 79.9254 12.4413 79.9534 12.6092C79.9813 12.7771 80.0688 13.2517 80.1479 13.6638C80.666 16.366 80.9811 18.1139 80.9813 18.2874C80.9816 18.4732 80.9653 18.4929 80.7696 18.5439C80.5676 18.5966 79.8963 18.7139 79.1291 18.8305C78.9344 18.8601 78.6672 18.9089 78.5354 18.939C78.4036 18.969 78.198 18.9944 78.0784 18.9953L77.8611 18.9969L77.887 18.7054C77.9013 18.5451 77.9557 18.1765 78.0081 17.8863C78.2397 16.6025 78.2752 16.3959 78.3178 16.0815C78.3426 15.8982 78.3887 15.6358 78.4203 15.4984C78.4518 15.3609 78.5198 14.9985 78.5713 14.6931C78.6595 14.17 78.7225 13.8082 78.9095 12.7494C78.9527 12.5051 79.0042 12.2052 79.024 12.083C79.0438 11.9608 79.0926 11.6735 79.1324 11.4444C79.1723 11.2153 79.2377 10.8336 79.2778 10.5963C79.3605 10.1062 79.4391 10.07 79.5375 10.4767ZM64.9364 10.6945C64.4032 10.796 63.5228 11.1017 63.1274 11.3227C62.6186 11.6072 61.9916 12.2227 61.719 12.7053C61.5019 13.0898 61.2453 13.7748 61.1319 14.2729C60.999 14.8564 60.9564 16.0918 60.9607 19.2422C60.9652 22.4545 61.0114 23.6139 61.1596 24.2305C61.239 24.5606 61.5245 25.3014 61.5905 25.3486C61.6118 25.3639 61.6541 25.4209 61.6845 25.4754C61.8443 25.762 62.2977 26.1257 62.713 26.3006C63.1421 26.4812 63.1602 26.4837 63.9966 26.4812C64.8509 26.4786 65.2205 26.4178 65.7015 26.2004C65.7995 26.1562 65.9055 26.12 65.9372 26.12C66.1377 26.1197 67.102 25.4403 67.3699 25.1107C68.0954 24.2179 68.4121 23.2237 68.4805 21.624C68.5265 20.5496 68.499 20.3659 68.2999 20.4195C68.2305 20.4382 68.0337 20.4682 67.8627 20.4863C67.4417 20.5308 67.244 20.6125 67.2155 20.7536C67.2024 20.8184 67.1782 21.3213 67.1617 21.8709C67.1319 22.8595 67.0851 23.139 66.8408 23.7868C66.6432 24.3106 66.1679 24.8442 65.715 25.0508C65.0522 25.353 64.9921 25.3666 64.3108 25.3675C63.5972 25.3685 63.4393 25.3182 63.0423 24.9631C62.8489 24.7901 62.5655 24.2182 62.4793 23.8272C62.3864 23.4053 62.3395 14.8989 62.4273 14.3822C62.6057 13.3319 63.0429 12.5861 63.717 12.1824C64.3809 11.7849 65.5868 11.6378 66.0817 11.8941C66.5448 12.1339 66.7858 12.4587 67.0104 13.1458C67.0944 13.4027 67.1305 13.7206 67.1584 14.4491C67.1953 15.4174 67.2383 15.5975 67.4192 15.544C67.4572 15.5328 67.6853 15.4925 67.9261 15.4545C68.1669 15.4166 68.3946 15.3494 68.4318 15.3051C68.5577 15.1559 68.4692 13.5595 68.2972 12.875C68.0061 11.7171 67.3102 10.9327 66.398 10.7342C66.0147 10.6508 65.2725 10.6307 64.9364 10.6945ZM52.3271 13.0973C52.2027 13.1242 51.9795 13.1679 51.8311 13.1944C51.6828 13.221 51.5429 13.261 51.5201 13.2833C51.4728 13.3299 51.4521 28.1577 51.4991 28.3467C51.5242 28.4474 51.5696 28.4716 51.7332 28.4713C51.9741 28.471 52.7138 28.3069 52.8145 28.2315C52.9155 28.1557 52.8978 13.201 52.7965 13.1018C52.7204 13.0273 52.653 13.0266 52.3271 13.0973ZM39.6326 15.3288C39.3381 15.3745 38.9172 15.4466 37.3425 15.7215C36.9693 15.7866 36.524 15.8633 36.353 15.8919C36.1736 15.9218 36.0118 15.9842 35.9708 16.0393C35.9142 16.1153 35.9047 17.6719 35.9247 23.6418C35.9385 27.7707 35.967 31.1657 35.9881 31.1863C36.0205 31.2181 39.1644 30.695 39.8515 30.5435C40.8294 30.3279 41.7923 29.7443 42.3543 29.0266C42.6166 28.6917 43.0434 27.8979 43.0432 27.7455C43.0431 27.6892 43.0676 27.5981 43.0975 27.5431C43.1274 27.4881 43.197 27.2461 43.2523 27.0053C43.3439 26.6057 43.3522 26.1987 43.3469 22.3478C43.3417 18.5974 43.3305 18.0851 43.246 17.7398C43.0707 17.0228 42.8937 16.6372 42.532 16.1843C42.0755 15.6125 41.4346 15.3323 40.51 15.3002C40.1985 15.2894 39.8037 15.3023 39.6326 15.3288ZM40.5282 16.448C41.3341 16.6434 41.8109 17.3253 41.9568 18.4911C42.0424 19.1761 42.0131 26.5212 41.9227 27.0135C41.7376 28.0213 41.1867 28.8381 40.4416 29.2093C40.077 29.3909 39.4583 29.5554 38.6626 29.6824C38.3515 29.7321 38.0051 29.7966 37.8926 29.8257C37.5671 29.91 37.3499 29.8933 37.326 29.782C37.3145 29.7286 37.3077 26.795 37.3109 23.263L37.3167 16.8411L37.7262 16.7545C39.3765 16.4053 40.0489 16.3318 40.5282 16.448ZM24.8177 17.9076C24.7088 17.9325 24.4417 17.9823 24.224 18.018C23.5681 18.1259 23.5801 18.1202 23.517 18.3513C23.4542 18.5815 23.3152 19.268 23.2417 19.7105C23.2164 19.8632 23.1665 20.1256 23.131 20.2936C23.0516 20.6684 22.9213 21.3331 22.6736 22.6261C22.6121 22.9468 22.5372 23.3342 22.5072 23.4869C22.4771 23.6396 22.4123 23.977 22.3632 24.2366C22.2541 24.8132 22.1357 25.4137 22.0292 25.9305C21.9852 26.1443 21.9083 26.5441 21.8584 26.819C21.8085 27.0939 21.7419 27.4313 21.7105 27.5688C21.679 27.7062 21.6317 27.9561 21.6054 28.1241C21.5791 28.2921 21.3527 29.4917 21.1023 30.7898C20.5359 33.7261 20.5243 33.7945 20.5855 33.8544C20.643 33.9107 21.6102 33.7682 21.7807 33.6783C21.85 33.6417 21.9057 33.539 21.9253 33.4113C21.943 33.2972 21.9964 33.0163 22.0439 32.7872C22.161 32.2242 22.2085 31.9806 22.3472 31.2322C22.4124 30.881 22.4875 30.5061 22.5142 30.3992C22.541 30.2923 22.5793 30.078 22.5994 29.9231C22.6322 29.67 22.6542 29.6347 22.8159 29.5771C22.915 29.5417 23.199 29.4849 23.4472 29.4506C23.6954 29.4164 23.9214 29.3745 23.9495 29.3574C23.9775 29.3403 24.156 29.3072 24.3461 29.2838C24.5363 29.2604 24.9845 29.1852 25.3421 29.1167C26.2622 28.9404 26.1966 28.9291 26.3115 29.2836C26.366 29.4514 26.4121 29.662 26.4142 29.7514C26.4162 29.8409 26.4424 29.9907 26.4724 30.0845C26.5356 30.2821 26.8061 31.6046 26.879 32.0726C26.9063 32.2481 26.9663 32.4798 27.0124 32.5876C27.0813 32.7488 27.119 32.7783 27.2255 32.7544C27.2967 32.7384 27.526 32.6995 27.7352 32.668C27.9443 32.6364 28.1813 32.586 28.2617 32.5558C28.3987 32.5045 28.4056 32.4845 28.3712 32.2373C28.351 32.0922 28.3087 31.8912 28.2771 31.7907C28.2454 31.6901 28.1976 31.4778 28.1706 31.3189C28.1136 30.9829 27.968 30.2913 27.6834 29.0041C27.6396 28.8057 27.5808 28.5053 27.5528 28.3367C27.525 28.168 27.4761 27.9308 27.4443 27.8094C27.3908 27.605 27.3527 27.4303 27.1208 26.326C26.9082 25.3136 26.8674 25.1207 26.7833 24.7302C26.482 23.33 26.3253 22.5773 26.2377 22.1084C26.205 21.9332 26.1531 21.7255 26.1225 21.6469C26.092 21.5682 26.0668 21.4264 26.0667 21.3319C26.0666 21.2373 26.029 21.0328 25.9832 20.8775C25.9127 20.6386 25.7148 19.719 25.5521 18.8745C25.4229 18.2043 25.3671 17.9796 25.3146 17.9171C25.2505 17.841 25.1189 17.8384 24.8177 17.9076ZM25.0208 22.4563C25.2969 23.9369 25.5436 25.2733 25.5689 25.4259C25.5942 25.5786 25.6684 25.9782 25.7339 26.314C25.7993 26.6498 25.877 27.0777 25.9064 27.2648C25.9357 27.4519 25.9859 27.6721 26.0178 27.7541C26.1081 27.9865 26.0099 28.1053 25.6941 28.1455C25.5465 28.1644 25.3239 28.2036 25.1995 28.2328C25.0751 28.2619 24.8207 28.3102 24.6341 28.3402C24.4475 28.3702 24.0658 28.4366 23.7859 28.4878C23.506 28.5391 23.1893 28.584 23.0821 28.5877L22.8872 28.5943L22.9019 28.2889C22.9099 28.1209 22.9502 27.8336 22.9915 27.6503C23.0328 27.467 23.1086 27.0671 23.1601 26.7617C23.2971 25.9488 23.4117 25.3035 23.4805 24.9569C23.5138 24.7889 23.5607 24.514 23.5847 24.346C23.6284 24.04 23.7284 23.4526 23.8872 22.5689C24.0482 21.6731 24.1481 21.0956 24.2283 20.5975C24.3276 19.9803 24.4197 19.6525 24.476 19.716C24.4996 19.7426 24.7447 20.9757 25.0208 22.4563ZM9.83311 20.5105C9.46772 20.5838 8.65885 20.7297 8.33467 20.7809C8.0698 20.8227 7.25294 20.9636 6.71435 21.0604C6.4452 21.1088 6.15887 21.1732 6.07809 21.2034L5.93117 21.2585L5.95587 28.8245L5.98064 36.3904L6.23515 36.3843C6.65118 36.3743 7.10298 36.2977 7.23884 36.2142L7.36599 36.1361L7.361 32.5094C7.35635 29.1243 7.36263 28.8771 7.45488 28.7988C7.50928 28.7526 7.74459 28.6864 7.97785 28.6516C8.21111 28.6169 8.63097 28.5495 8.91087 28.5019C9.81436 28.3481 9.84026 28.3458 9.92089 28.4113C9.99823 28.4741 10.0506 28.6169 10.4118 29.7496C10.514 30.0701 10.616 30.3822 10.6386 30.4433C10.6777 30.5492 10.8208 30.9921 11.2122 32.2192C11.3096 32.5244 11.422 32.8615 11.4621 32.9683C11.5021 33.0752 11.5796 33.3124 11.6343 33.4956C11.689 33.6787 11.7521 33.8785 11.7746 33.9395C11.7971 34.0006 11.9001 34.3127 12.0033 34.6332C12.1067 34.9537 12.2209 35.2484 12.2573 35.288C12.3115 35.347 12.4199 35.3436 12.8558 35.2693C13.4678 35.165 13.6426 35.1065 13.6425 35.0061C13.6424 34.9669 13.5047 34.5231 13.3363 34.0199C13.168 33.5167 12.7314 32.206 12.366 31.1072C12.0007 30.0084 11.6692 29.0219 11.6294 28.9151C11.5897 28.8083 11.5244 28.6335 11.4843 28.5267C11.4441 28.4198 11.4 28.2319 11.3861 28.1089C11.3616 27.8908 11.3687 27.8801 11.6802 27.6689C12.5392 27.0865 13.0849 26.2508 13.317 25.1626C13.4409 24.582 13.4806 23.5786 13.4038 22.972C13.2223 21.539 12.7467 20.8218 11.7738 20.5136C11.4171 20.4006 10.3889 20.399 9.83311 20.5105ZM11.1601 21.671C11.5017 21.8291 11.6836 22.0522 11.8827 22.5576C12.0048 22.8675 12.014 22.9714 12.0155 24.0565C12.0171 25.195 12.0133 25.233 11.8576 25.6668C11.6085 26.3608 11.3029 26.7334 10.7663 26.9973C10.3427 27.2057 7.48641 27.7071 7.40825 27.5867C7.37674 27.5383 7.35923 26.4033 7.36509 24.7867L7.37493 22.0683L7.54455 22.0285C7.75703 21.9787 8.18214 21.8998 8.87335 21.7818C9.1688 21.7314 9.55048 21.6582 9.72151 21.6191C10.2745 21.4929 10.8175 21.5124 11.1601 21.671ZM93.5843 26.1656C93.4952 26.2113 93.3835 26.2488 93.3361 26.2489C93.1949 26.2491 92.686 26.5769 92.4869 26.796C91.8206 27.5286 91.7977 28.7705 92.4389 29.4034C92.6925 29.6538 93.1221 29.969 93.2096 29.9689C93.2388 29.9689 93.2963 30.0005 93.3375 30.0393C93.3786 30.0779 93.595 30.2168 93.8183 30.3477C94.5275 30.7636 94.6861 30.9694 94.6868 31.4749C94.6873 31.8478 94.5598 32.0455 94.2281 32.1861C93.8963 32.3267 93.8752 32.3267 93.6176 32.185C93.3449 32.035 93.2704 31.9092 93.1795 31.4441C93.1381 31.2325 93.076 31.0422 93.0415 31.0213C92.969 30.9775 92.0804 31.3327 92.0155 31.4315C91.8898 31.6228 92.1597 32.4494 92.4602 32.793C92.7504 33.1249 93.0548 33.2448 93.605 33.2441C94.5514 33.2428 95.3633 32.7774 95.7188 32.0324C95.8203 31.8196 95.8415 31.6764 95.8395 31.2168C95.8374 30.7193 95.8203 30.6273 95.681 30.3619C95.5952 30.1983 95.402 29.946 95.2517 29.8012C95.0215 29.5793 94.3552 29.1301 93.8756 28.8734C93.5454 28.6966 93.2277 28.3623 93.1576 28.1179C93.0788 27.8433 93.1409 27.539 93.3166 27.3378C93.5191 27.106 94.0029 27.012 94.2804 27.1506C94.4555 27.238 94.6353 27.5451 94.6775 27.8286C94.7259 28.1549 94.7665 28.1535 95.5725 27.7968C95.7168 27.7329 95.8149 27.6513 95.8183 27.5925C95.8533 26.9807 95.5541 26.487 94.99 26.2258C94.7302 26.1054 94.5963 26.0806 94.2112 26.0814C93.9092 26.0821 93.6893 26.1116 93.5843 26.1656ZM86.3954 27.4785C85.5823 27.5861 85.1994 27.6613 85.0807 27.7367L84.9536 27.8175L84.9591 31.1891C84.9621 33.0435 84.987 34.5954 85.0144 34.6377C85.0564 34.7026 85.1368 34.7036 85.526 34.6436C85.78 34.6044 86.0243 34.5364 86.069 34.4924C86.1359 34.4266 86.15 34.1419 86.1483 32.8983L86.1462 31.3842L86.3648 31.3196C86.485 31.2841 86.6125 31.255 86.6482 31.2549C86.7331 31.2548 86.8852 31.5959 87.1061 32.2814C87.2045 32.5866 87.3074 32.877 87.3349 32.9266C87.3625 32.9763 87.4025 33.1076 87.4239 33.2186C87.4452 33.3296 87.4853 33.434 87.5129 33.4507C87.5405 33.4673 87.5637 33.5358 87.5645 33.6027C87.5653 33.6696 87.6151 33.8305 87.6753 33.9601C87.7824 34.1909 87.7907 34.1959 88.0619 34.1956C88.3567 34.1952 88.6769 34.1113 88.7953 34.0036C88.8528 33.9511 88.7817 33.685 88.4376 32.665C88.2014 31.9648 87.9854 31.3512 87.9576 31.3016C87.9298 31.2519 87.8903 31.1241 87.8698 31.0175C87.8362 30.8433 87.8581 30.7952 88.0857 30.543C88.8718 29.6717 88.786 27.9976 87.9346 27.5944C87.6425 27.4562 86.9553 27.4044 86.3954 27.4785ZM87.246 28.5343C87.5256 28.7915 87.5256 29.5949 87.246 29.9558C87.0868 30.1612 86.6925 30.3646 86.3702 30.4074L86.1449 30.4374L86.1435 29.4346C86.142 28.28 86.0936 28.3625 86.754 28.3937C87.0302 28.4067 87.142 28.4387 87.246 28.5343ZM79.6098 28.5802C79.1518 28.6364 78.624 28.8372 78.2918 29.0818C78.0754 29.2411 77.7165 29.6551 77.7167 29.7454C77.7167 29.7639 77.6822 29.8579 77.64 29.9542C77.4058 30.489 77.3733 30.8449 77.3962 32.6279C77.4187 34.3871 77.4385 34.564 77.6694 35.0771C77.8529 35.4848 78.4329 35.8189 78.956 35.8182C79.1432 35.8179 79.7707 35.6867 80.0436 35.5908C80.5689 35.4061 81.0037 34.9531 81.2409 34.3437C81.368 34.017 81.3705 33.969 81.3677 31.9007C81.365 29.9448 81.3567 29.7696 81.2539 29.4988C81.0027 28.8366 80.3756 28.4862 79.6098 28.5802ZM74.1533 29.6114C74.0755 29.6346 73.8338 29.6822 73.6161 29.7174C73.3984 29.7526 73.004 29.8192 72.7396 29.8656C72.4753 29.912 72.0989 29.9725 71.9033 30.0001C71.7076 30.0278 71.5195 30.0675 71.4853 30.0883C71.451 30.1092 71.2803 30.1415 71.1059 30.1601L70.7888 30.1941L70.7729 30.6608C70.7641 30.9176 70.7796 31.1499 70.8073 31.177C70.8368 31.2058 71.0742 31.1872 71.3788 31.132C71.7811 31.0593 71.9152 31.0527 71.9672 31.1036C72.0167 31.152 72.043 31.9355 72.0667 34.0676C72.0984 36.922 72.1007 36.9657 72.2121 36.9598C72.3824 36.9508 73.0547 36.8099 73.0994 36.7738C73.1209 36.7564 73.1445 35.4264 73.1519 33.8181C73.1592 32.2098 73.1829 30.8767 73.2044 30.8555C73.2259 30.8344 73.4422 30.7815 73.685 30.7381C74.462 30.5992 74.381 30.6726 74.3802 30.1081C74.3798 29.8356 74.3604 29.603 74.3371 29.591C74.3137 29.5791 74.231 29.5883 74.1533 29.6114ZM79.9515 29.6546C80.2365 29.8269 80.2622 30.024 80.265 32.0567C80.2677 33.9923 80.2376 34.2475 79.975 34.5235C79.7013 34.8111 79.1236 34.9122 78.8654 34.7178C78.6412 34.5488 78.6061 34.2763 78.5824 32.5152C78.5559 30.549 78.6011 30.14 78.8734 29.8807C79.0508 29.7118 79.3955 29.5616 79.6327 29.5499C79.7068 29.5462 79.8503 29.5933 79.9515 29.6546ZM65.9959 31.0344C65.6002 31.1198 65.5019 31.1931 65.5022 31.4027C65.5023 31.491 65.4665 31.7066 65.4227 31.8818C65.3371 32.2235 65.212 32.7898 65.1129 33.2832C64.9635 34.0277 64.5967 35.8145 64.4631 36.4488C64.3203 37.1271 64.2465 37.498 64.1538 38.0038C64.0959 38.32 64.1737 38.4247 64.4027 38.3389C64.4878 38.3069 64.6548 38.2807 64.7738 38.2806C65.1219 38.2801 65.2299 38.1495 65.3522 37.5813C65.4108 37.3089 65.4733 36.9683 65.491 36.8246C65.5097 36.6731 65.5676 36.5237 65.6288 36.4691C65.7367 36.3731 66.172 36.2709 66.5269 36.2584C66.714 36.2518 66.7274 36.2635 66.7721 36.4734C66.7981 36.5955 66.8546 36.8328 66.8978 37.0007C66.9409 37.1686 66.9907 37.3971 67.0085 37.5085C67.055 37.7992 67.1226 37.833 67.5482 37.7788C68.2092 37.6948 68.289 37.6275 68.1722 37.2527C68.143 37.159 68.0768 36.8825 68.0253 36.6382C67.9737 36.394 67.8952 36.0671 67.8509 35.9118C67.8066 35.7565 67.7703 35.5739 67.7702 35.506C67.7701 35.4381 67.7342 35.2654 67.6905 35.1223C67.6468 34.9792 67.5676 34.6623 67.5145 34.4181C67.4613 34.1739 67.394 33.8867 67.3648 33.7798C67.3161 33.6012 67.2746 33.4149 67.1485 32.8085C67.0936 32.5444 67.0061 32.1808 66.9148 31.8372C66.8783 31.6999 66.8354 31.4751 66.8195 31.3377C66.8035 31.2003 66.7646 31.0567 66.733 31.0186C66.6637 30.9351 66.4335 30.94 65.9959 31.0344ZM59.0555 32.1796C58.1389 32.4001 57.562 32.9876 57.3341 33.9324C57.2535 34.2664 57.2437 34.5873 57.2649 36.2089C57.2877 37.9665 57.2976 38.1156 57.4073 38.373C57.5614 38.7344 57.8291 39.0411 58.115 39.1837C58.4374 39.3447 59.3347 39.3134 59.8219 39.1243C60.6319 38.8099 61.0675 38.0984 61.1358 36.9781C61.1673 36.4615 61.1607 36.3968 61.0727 36.3639C60.9272 36.3093 60.1277 36.4339 60.0724 36.5198C60.0462 36.5604 60.0247 36.7578 60.0244 36.9584C60.0237 37.7321 59.7293 38.233 59.2258 38.3172C58.8914 38.3732 58.6847 38.2665 58.5367 37.9617C58.4166 37.7143 58.4126 37.6462 58.4106 35.7909C58.4083 33.6422 58.4112 33.6246 58.8152 33.2953C59.0121 33.135 59.0567 33.1227 59.3933 33.1366C59.743 33.1512 59.7627 33.1597 59.8723 33.3436C59.9473 33.4696 59.9971 33.6794 60.0174 33.9542L60.0483 34.3729L60.3916 34.3634C60.5803 34.3583 60.8319 34.314 60.9506 34.2652L61.1665 34.1763L61.1266 33.6909C61.0738 33.0491 60.8424 32.5647 60.4724 32.3223C60.248 32.1752 60.1674 32.1558 59.7369 32.1446C59.471 32.1376 59.1644 32.1534 59.0555 32.1796ZM53.0038 33.2985C52.832 33.3206 52.6347 33.3685 52.5652 33.405L52.439 33.4716L52.4583 36.9255C52.4774 40.3412 52.4789 40.3794 52.5908 40.3702C52.9998 40.3367 53.5054 40.2177 53.5661 40.1408C53.6208 40.0715 53.6356 39.3034 53.6321 36.7353C53.6296 34.9114 53.6121 33.3797 53.5931 33.3314C53.5566 33.2383 53.499 33.2351 53.0038 33.2985ZM66.2432 33.5791C66.2447 33.5835 66.2852 33.8119 66.3331 34.0866C66.5513 35.3376 66.5471 35.3694 66.1579 35.4003C66.0134 35.4118 65.8718 35.407 65.8431 35.3896C65.7861 35.3551 65.8642 34.6064 65.9587 34.2812C65.9896 34.1748 66.0148 33.9731 66.0146 33.8329C66.0144 33.6928 66.0294 33.5631 66.048 33.5449C66.0748 33.5184 66.2316 33.5459 66.2432 33.5791ZM47.9727 34.1894L47.6052 34.2845L47.5773 36.0306C47.562 36.991 47.544 37.783 47.5373 37.7907C47.4911 37.8438 47.3555 37.7883 47.3554 37.7162C47.3553 37.6675 47.3184 37.5614 47.2733 37.4804C47.2282 37.3994 47.1489 37.2332 47.097 37.1112C46.9945 36.8701 46.9433 36.7561 46.673 36.1679C46.49 35.7697 46.475 35.7362 46.2883 35.3079C45.9274 34.4802 45.974 34.5223 45.513 34.6071C45.3575 34.6357 45.1983 34.6838 45.1592 34.7139C45.1032 34.757 45.0923 35.4997 45.1074 38.2176L45.1268 41.6666L45.2681 41.6591C45.3459 41.6551 45.5876 41.6169 45.8053 41.5744L46.2011 41.4971L46.2133 39.513C46.2242 37.7239 46.2545 37.3267 46.3572 37.6258C46.3756 37.6791 46.4126 37.7603 46.4394 37.8061C46.5706 38.0298 46.6775 38.2664 46.6776 38.3332C46.6776 38.3741 46.7152 38.4782 46.7612 38.5645C46.8072 38.6509 46.8864 38.8215 46.9372 38.9436C46.988 39.0656 47.0514 39.2155 47.0782 39.2765C47.1049 39.3375 47.2575 39.6996 47.4171 40.0811C47.865 41.1511 47.8848 41.188 48.0106 41.1882C48.0728 41.1883 48.2509 41.1558 48.4064 41.1161L48.6891 41.0437L48.7127 37.6328C48.7259 35.7293 48.7144 34.1912 48.6869 34.1525C48.6225 34.0622 48.425 34.0724 47.9727 34.1894ZM41.1024 35.3705C41.0402 35.3969 40.884 35.4203 40.7553 35.4226C40.62 35.425 40.4713 35.4679 40.4033 35.5242C40.2872 35.62 40.2853 35.6622 40.2736 38.2865C40.262 40.8695 40.258 40.9593 40.1419 41.2066C40.0056 41.4971 39.8178 41.6453 39.42 41.7766C39.1505 41.8656 39.1365 41.8647 38.9126 41.7438C38.7347 41.6478 38.6566 41.5566 38.5688 41.3423C38.4619 41.0815 38.4538 40.9107 38.4319 38.466L38.4086 35.8669L38.0874 35.9008C37.5847 35.9538 37.3443 36.0419 37.3075 36.1867C37.2899 36.256 37.2879 37.4698 37.3031 38.884C37.3279 41.2009 37.3409 41.4826 37.4345 41.7327C37.6198 42.2274 37.8228 42.4844 38.1714 42.6653C38.3594 42.7628 38.4867 42.7813 38.9222 42.7743C40.2536 42.7529 41.0522 42.1434 41.3388 40.93C41.4014 40.6649 41.4185 40.0351 41.4182 38.007C41.418 36.5851 41.4026 35.3977 41.384 35.3682C41.3438 35.3045 41.2566 35.3052 41.1024 35.3705ZM32.9316 36.7991C32.7917 36.8433 32.5849 36.8799 32.472 36.8806C32.3592 36.8812 32.2427 36.913 32.2131 36.9512C32.147 37.0366 31.9714 37.7634 31.9717 37.9506C31.9718 38.0256 31.9463 38.1595 31.915 38.2481C31.8837 38.3366 31.8337 38.5715 31.8038 38.77C31.7739 38.9686 31.711 39.3434 31.6641 39.603C31.6171 39.8627 31.5548 40.2224 31.5257 40.4023C31.4966 40.5823 31.4465 40.8447 31.4143 40.9855C31.3822 41.1262 31.3397 41.3663 31.32 41.519L31.2842 41.7966L31.1745 41.5481C31.1143 41.4114 31.0433 41.1322 31.0169 40.9277C30.9904 40.723 30.9526 40.5299 30.9327 40.4985C30.9129 40.4671 30.8728 40.2843 30.8436 40.0923C30.7909 39.7458 30.7093 39.3208 30.5314 38.4664C30.4805 38.2222 30.4241 37.8975 30.4059 37.7448C30.3577 37.3375 30.3223 37.3128 29.8532 37.3581C29.4915 37.3931 28.8739 37.5208 28.8227 37.5712C28.8114 37.5824 28.8041 39.138 28.8064 41.0282L28.8108 44.465L28.9676 44.484C29.0538 44.4944 29.2644 44.4712 29.4354 44.4325C29.9897 44.3071 29.9399 44.5262 29.9176 42.312C29.9067 41.2356 29.9119 40.3182 29.9291 40.2733C29.9623 40.1864 30.0812 40.5488 30.1745 41.0209C30.2046 41.1735 30.2662 41.4524 30.3114 41.6405C30.3566 41.8287 30.3937 42.0517 30.3938 42.1361C30.3939 42.2206 30.4179 42.3664 30.4471 42.4601C30.5 42.6295 30.5722 42.9976 30.6982 43.7407C30.7581 44.0936 30.7771 44.1307 30.9057 44.1453C30.9836 44.1541 31.1867 44.1261 31.3571 44.083C31.7052 43.9951 31.6804 44.0417 31.8344 43.1839C31.8782 42.9395 31.9556 42.5147 32.0064 42.2398C32.0572 41.9649 32.119 41.5901 32.1438 41.4068C32.1686 41.2236 32.2159 40.9612 32.2488 40.8237C32.2818 40.6862 32.3238 40.4801 32.3422 40.3655C32.3607 40.251 32.4 40.1572 32.4297 40.1572C32.4978 40.1571 32.4988 40.1865 32.4969 42.1379C32.4957 43.4957 32.5088 43.7687 32.5783 43.8252C32.6438 43.8784 32.7351 43.8737 33.0133 43.8026C33.2069 43.7532 33.4289 43.7056 33.5067 43.6969L33.648 43.6811L33.6433 40.2111L33.6385 36.741L33.4122 36.7298C33.2878 36.7237 33.0715 36.7549 32.9316 36.7991ZM24.6679 38.2511C24.6531 38.2657 24.4516 38.304 24.2202 38.3363C23.9888 38.3685 23.7564 38.4081 23.7038 38.4243C23.5714 38.4649 23.4174 39.0594 23.2659 40.1143C23.2238 40.4073 23.1841 40.6185 23.0103 41.4749C22.9668 41.6887 22.9175 41.9636 22.9006 42.0858C22.841 42.5172 22.7306 43.0489 22.693 43.086C22.6327 43.1454 22.4764 42.8037 22.4762 42.6118C22.476 42.516 22.4393 42.2837 22.3947 42.0956C22.1812 41.1966 22.1336 40.9656 22.1339 40.8307C22.134 40.7505 22.0958 40.5788 22.049 40.4491C22.0021 40.3193 21.9637 40.1425 21.9636 40.0563C21.9635 39.97 21.925 39.7556 21.8781 39.5798C21.8312 39.404 21.7927 39.181 21.7926 39.0843C21.7922 38.8066 21.6885 38.7601 21.2413 38.8371C20.511 38.9629 20.3202 39.0184 20.2644 39.1212C20.1964 39.2462 20.1986 45.8319 20.2667 45.9368C20.3033 45.9934 20.4068 45.9973 20.7486 45.9552C20.9881 45.9257 21.2211 45.8711 21.2666 45.834C21.3364 45.777 21.3489 45.4574 21.3466 43.7903C21.3442 42.0191 21.3528 41.8231 21.4303 41.8988C21.4778 41.9454 21.543 42.1443 21.5752 42.3408C21.6074 42.5374 21.6687 42.8731 21.7116 43.0868C21.7544 43.3005 21.8314 43.7126 21.8826 44.0026C21.9339 44.2926 22.0044 44.6423 22.0394 44.7797C22.0745 44.9171 22.1141 45.1485 22.1275 45.2941C22.1434 45.4665 22.1845 45.575 22.2454 45.6055C22.3578 45.6617 22.9703 45.5993 23.0364 45.5249C23.104 45.4488 23.2711 44.8066 23.2703 44.6262C23.2699 44.5417 23.3065 44.3102 23.3516 44.1116C23.457 43.6478 23.5585 43.1098 23.6135 42.7233C23.8595 40.9969 23.9315 41.1837 23.9424 43.5767L23.9504 45.3466L24.3535 45.3071C24.7896 45.2643 25.0262 45.1953 25.0934 45.0912C25.1436 45.0135 25.1431 38.532 25.0929 38.349C25.0664 38.2523 25.0176 38.2242 24.8767 38.2244C24.7767 38.2245 24.6827 38.2365 24.6679 38.2511ZM95.7429 38.6015C95.7118 38.6134 95.1685 38.7112 94.5355 38.8188C93.9025 38.9264 93.353 39.0402 93.3144 39.0718C93.2329 39.1383 93.1608 39.3028 92.8137 40.213C92.6738 40.5796 92.3506 41.4171 92.0954 42.0739C91.8402 42.7308 91.5628 43.4557 91.4789 43.6849C91.3839 43.9444 91.2914 44.1083 91.2336 44.1196C91.1489 44.1361 91.1407 43.9392 91.1378 41.8363C91.1352 39.9655 91.1202 39.5232 91.0577 39.4724C91.0004 39.4259 90.8818 39.43 90.5911 39.4887C90.3768 39.5321 89.9597 39.6088 89.6643 39.6593C88.8315 39.8016 88.5113 39.8721 88.4345 39.9298C88.3258 40.0115 88.3497 53.3257 88.4586 53.3665C88.5006 53.3823 88.6469 53.3742 88.7838 53.3487C88.9206 53.3232 89.1852 53.2753 89.3718 53.2424C90.6948 53.0087 91.0716 52.9375 91.0964 52.9166C91.112 52.9034 91.136 51.7642 91.1499 50.3849L91.1752 47.8771L91.3786 47.3771C91.4907 47.1018 91.6156 46.8771 91.6566 46.8771C91.7014 46.877 91.8286 47.1541 91.975 47.5706C92.4799 49.0072 92.6184 49.3957 92.9052 50.1788C93.0673 50.6214 93.2131 51.0459 93.2293 51.1222C93.2454 51.1986 93.2768 51.286 93.299 51.3165C93.3213 51.347 93.3834 51.5093 93.4372 51.6772C93.5783 52.1177 93.7526 52.454 93.8397 52.4539C93.8812 52.4538 94.0379 52.43 94.188 52.4008C94.9968 52.244 95.3858 52.1738 95.5636 52.1528C95.6724 52.1399 95.9332 52.0979 96.1432 52.0595C96.5036 51.9935 96.5248 51.9812 96.5246 51.8384C96.5245 51.7553 96.4498 51.5155 96.3586 51.3055C96.2673 51.0956 96.0741 50.6242 95.9292 50.258C95.5426 49.281 95.471 49.1041 95.278 48.6488C95.2521 48.5877 95.1758 48.4004 95.1085 48.2326C95.0412 48.0647 94.9638 47.8775 94.9365 47.8164C94.9092 47.7554 94.8185 47.5306 94.7351 47.317C94.6515 47.1034 94.4987 46.7288 94.3954 46.4847C94.0798 45.7388 93.6983 44.7726 93.659 44.6198C93.6217 44.4749 93.6669 44.3481 94.0223 43.5981C94.1092 43.4148 94.2595 43.096 94.3563 42.8898C94.4531 42.6835 94.6056 42.3585 94.6952 42.1675C94.7849 41.9766 94.9095 41.7078 94.9721 41.5703C95.0348 41.4328 95.1871 41.1078 95.3105 40.8481C95.434 40.5883 95.6665 40.0883 95.8273 39.7369C95.988 39.3856 96.1674 39.0002 96.2257 38.8805C96.2842 38.7609 96.3188 38.6421 96.3027 38.6167C96.2738 38.571 95.8523 38.5595 95.7429 38.6015ZM14.4694 39.9554C14.2828 40.0057 14.0746 40.0774 14.0067 40.1148C13.9388 40.1521 13.8551 40.1827 13.8206 40.1828C13.7861 40.1828 13.7272 40.207 13.6897 40.2365C13.1503 40.6608 12.9748 40.903 12.7964 41.4681C12.7007 41.7714 12.6906 42.0016 12.6931 43.816C12.6955 45.5526 12.7089 45.865 12.791 46.1007C12.9794 46.641 13.2049 46.8832 13.6682 47.043C13.989 47.1535 14.3766 47.1421 14.8902 47.0068C15.8221 46.7614 16.2454 46.3438 16.5491 45.3702C16.6416 45.0735 16.6526 44.8297 16.649 43.1492C16.6455 41.4881 16.633 41.2283 16.5447 40.9841C16.3197 40.3625 16.0979 40.1145 15.6234 39.9544C15.2584 39.8312 14.9281 39.8315 14.4694 39.9554ZM15.1961 40.9545C15.3027 40.9941 15.3539 41.0823 15.4295 41.3562C15.5138 41.6616 15.5238 41.9383 15.5065 43.4839C15.4856 45.3565 15.4572 45.573 15.1978 45.8402C14.9085 46.138 14.3422 46.2177 14.0806 45.9974C13.8217 45.7794 13.7715 45.3998 13.7704 43.6529C13.7693 41.7575 13.8185 41.4101 14.1255 41.1489C14.4355 40.885 14.821 40.8151 15.1961 40.9545ZM7.14465 41.2672C6.26737 41.5594 5.86245 41.9975 5.59628 42.9424C5.51511 43.2305 5.50524 43.5353 5.52346 45.191C5.5439 47.0557 5.54805 47.1152 5.67903 47.4349C5.99359 48.2027 6.655 48.4943 7.61866 48.2901C8.25595 48.155 8.76078 47.8145 9.05381 47.3221C9.25306 46.9873 9.41608 46.2954 9.41538 45.7875L9.41478 45.3523L9.23498 45.3525C9.13611 45.3526 8.97705 45.3771 8.88156 45.4068C8.78607 45.4366 8.61554 45.4749 8.50256 45.4919L8.29718 45.5229L8.25821 46.0954C8.20061 46.942 7.96325 47.2859 7.39971 47.3392C7.04038 47.3732 6.85977 47.2384 6.73315 46.8412C6.65329 46.5906 6.64277 46.3006 6.6582 44.7731C6.66811 43.7959 6.69706 42.9214 6.72255 42.8298C6.79864 42.5562 6.97856 42.3536 7.24525 42.2409C7.62454 42.0807 7.86161 42.0998 8.05877 42.3064C8.224 42.4795 8.23931 42.5502 8.24952 43.1885L8.25261 43.3829L8.59196 43.3786C8.7786 43.3762 9.04291 43.3427 9.17939 43.3041L9.42742 43.2341L9.39465 42.808C9.33073 41.9788 9.04866 41.474 8.52184 41.2461C8.17549 41.0962 7.63304 41.1045 7.14465 41.2672ZM78.0159 41.7109C77.876 41.7375 77.5923 41.7837 77.3856 41.8136C77.1788 41.8436 76.8989 41.8925 76.7636 41.9222C76.5354 41.9725 76.1247 42.0442 75.089 42.2148C74.8631 42.252 74.6531 42.3123 74.6223 42.3489C74.5858 42.3922 74.5745 44.741 74.5899 49.0995L74.6134 55.7838L74.8114 55.7675C74.9202 55.7586 75.1238 55.7281 75.2637 55.6999C75.6317 55.6257 76.4381 55.4849 76.7339 55.4431C76.8739 55.4234 77.0711 55.3737 77.1721 55.3327L77.3558 55.2582L77.3516 52.2077C77.347 48.8809 77.3265 49.0898 77.6586 49.0894C77.7941 49.0892 77.8242 49.1483 77.9692 49.6997C77.9974 49.8065 78.0602 50.0235 78.109 50.1818C78.1577 50.3402 78.1977 50.5059 78.1977 50.5501C78.1978 50.5943 78.2376 50.7645 78.2863 50.9282C78.3349 51.092 78.4096 51.3508 78.4522 51.5034C78.4949 51.6561 78.5612 51.8933 78.5996 52.0307C78.638 52.168 78.6897 52.3678 78.7147 52.4747C78.7396 52.5815 78.7985 52.8063 78.8455 52.9742C78.8926 53.1421 79.0059 53.5667 79.0975 53.9177C79.3172 54.7601 79.4163 54.9888 79.5459 54.9515C79.6009 54.9356 79.8114 54.8945 80.0135 54.8601C80.2157 54.8257 80.5847 54.7618 80.8335 54.7181C81.0823 54.6745 81.4639 54.6091 81.6816 54.5728C82.26 54.4765 82.2715 54.4563 82.0601 53.903C81.9632 53.6494 81.8669 53.373 81.8462 53.2888C81.8255 53.2046 81.7859 53.1219 81.7582 53.1052C81.7305 53.0884 81.7076 53.0325 81.7074 52.9809C81.7071 52.9292 81.6688 52.8155 81.6222 52.7281C81.5756 52.6406 81.5374 52.532 81.5374 52.4867C81.5373 52.4414 81.5032 52.3256 81.4615 52.2294C81.3684 52.0147 81.3719 52.0246 80.712 50.0944C80.4164 49.2299 80.1744 48.4743 80.1744 48.4152C80.1743 48.3562 80.2441 48.2527 80.3296 48.1853C80.4151 48.1179 80.6779 47.8698 80.9138 47.634C81.4765 47.0712 81.7316 46.5675 81.8809 45.7246C81.9659 45.2444 81.9656 44.1214 81.8803 43.6585C81.7145 42.7586 81.0546 42.0174 80.241 41.8172C80.1215 41.7877 79.922 41.7381 79.7975 41.7067C79.53 41.6393 78.3794 41.642 78.0159 41.7109ZM78.7717 43.8344C79.1998 44.2535 79.3074 45.199 79.0503 46.2837C78.887 46.9726 78.31 47.4057 77.6192 47.3579L77.3732 47.3409L77.3708 45.5947L77.3684 43.8485L77.7359 43.7555C78.348 43.6007 78.5486 43.616 78.7717 43.8344ZM63.653 43.9463C62.9561 44.1095 62.5194 44.2756 62.0419 44.5589C61.0388 45.1543 60.4045 46.0529 60.0567 47.3714L59.8973 47.9756L59.8846 51.4734C59.8712 55.1047 59.8795 55.2682 60.1135 55.9703C60.5588 57.307 61.3572 57.9398 62.7108 58.0291C63.6027 58.0879 64.8004 57.8053 65.5661 57.3554C66.713 56.6815 67.3152 55.8005 67.7344 54.1831C67.8544 53.7202 67.9065 52.4644 67.9009 50.1705C67.8951 47.8151 67.8292 46.6485 67.6729 46.1327C67.5211 45.6317 67.4387 45.4279 67.3034 45.2182C67.2251 45.0968 67.1611 44.976 67.161 44.9496C67.1609 44.854 66.4464 44.2419 66.1984 44.1249C65.5409 43.8146 64.5208 43.7431 63.653 43.9463ZM53.4663 45.9852C53.4511 46.0001 53.2878 46.0347 53.1035 46.062C52.1562 46.2023 51.5744 46.3157 51.5179 46.371C51.4448 46.4427 51.3274 47.1227 51.3281 47.4707C51.3284 47.6022 51.292 48.0221 51.2472 48.4039C51.1453 49.2726 51.0498 50.2178 50.9948 50.9027C50.943 51.5485 50.8456 52.4873 50.7385 53.3737C50.6942 53.7402 50.6582 54.1556 50.6585 54.2968C50.6588 54.4381 50.6427 54.6342 50.6227 54.7327L50.5865 54.9117L50.5105 54.6981C50.4687 54.5806 50.4074 54.2722 50.3743 54.0127C50.3411 53.7532 50.2902 53.3785 50.2613 53.18C50.2323 52.9816 50.1801 52.6069 50.1453 52.3474C50.1105 52.0879 50.0445 51.6008 49.9987 51.2649C49.9529 50.9291 49.8929 50.4545 49.8654 50.2102C49.8378 49.966 49.7883 49.6163 49.7553 49.4331C49.7222 49.2499 49.6539 48.7753 49.6034 48.3784C49.42 46.9372 49.3927 46.7886 49.3053 46.7558C49.2057 46.7184 47.4743 47.0079 47.4067 47.0732C47.3602 47.1181 47.2733 47.6566 47.1193 48.8537C47.074 49.205 46.9969 49.8047 46.9478 50.1865C46.8988 50.5682 46.8328 51.0555 46.8012 51.2693C46.7696 51.4831 46.7208 51.8705 46.6926 52.1301C46.6645 52.3896 46.6056 52.8769 46.5619 53.2129C46.5182 53.5488 46.4538 54.0736 46.4188 54.379C46.3401 55.0653 46.1906 55.745 46.1269 55.7065C46.1007 55.6906 46.0777 55.5105 46.0757 55.3062C46.0737 55.1019 46.0481 54.7349 46.0188 54.4906C45.9895 54.2464 45.9513 53.8716 45.9339 53.6579C45.9164 53.4442 45.8653 52.9446 45.8203 52.5477C45.7752 52.1507 45.6974 51.3888 45.6473 50.8545C45.5972 50.3202 45.5302 49.6457 45.4985 49.3557C45.4667 49.0656 45.4178 48.5433 45.3898 48.1949C45.3285 47.4312 45.287 47.3654 44.9264 47.4612C44.7921 47.4969 44.5169 47.5513 44.3148 47.5821C43.451 47.7138 43.0599 47.7929 43.0048 47.8471C42.9642 47.8871 42.9654 47.9928 43.0089 48.1905C43.0434 48.3476 43.0718 48.5641 43.072 48.6716C43.0721 48.7791 43.1089 49.0715 43.1538 49.3211C43.27 49.9693 43.3611 50.5482 43.4174 50.9964C43.4955 51.6184 43.6714 52.8216 43.9023 54.3131C43.9508 54.626 44.0129 55.0694 44.0404 55.2984C44.068 55.5274 44.1172 55.8771 44.1499 56.0755C44.2439 56.6458 44.3699 57.5027 44.5579 58.851C44.8408 60.8801 44.8514 60.9293 45.0138 60.9519C45.0901 60.9625 45.2799 60.9446 45.4356 60.9121C45.7239 60.852 46.5651 60.7063 46.9479 60.6502C47.242 60.6072 47.2874 60.4926 47.3876 59.5411C47.4468 58.9789 47.6968 56.9549 47.8643 55.6818C47.9105 55.3305 47.9719 54.8065 48.0006 54.5174C48.0294 54.2282 48.067 53.9284 48.0842 53.8511C48.1013 53.7737 48.15 53.3823 48.1923 52.9813C48.2345 52.5803 48.3019 52.193 48.342 52.1206L48.4149 51.9889L48.4555 52.1554C48.4778 52.247 48.5384 52.6841 48.5902 53.1268C48.686 53.9462 49.2061 57.9103 49.3039 58.5668C49.3335 58.7653 49.3881 59.1707 49.4253 59.4679C49.5181 60.2082 49.5176 60.2078 50.0757 60.099C50.9626 59.9263 51.4625 59.8409 51.588 59.8407C51.814 59.8404 51.9669 59.6888 51.9666 59.4654C51.9664 59.3544 52.0034 59.0372 52.0486 58.7606C52.1291 58.2696 52.1831 57.8816 52.4167 56.1197C52.4795 55.6463 52.5785 54.9216 52.6368 54.5093C52.6952 54.0969 52.7962 53.3598 52.8613 52.8711C52.9265 52.3824 53.0291 51.6203 53.0894 51.1774C53.1498 50.7345 53.2243 50.1848 53.2552 49.9557C53.286 49.7267 53.3468 49.2769 53.3904 48.9562C53.4339 48.6355 53.51 48.0732 53.5595 47.7067C53.6089 47.3402 53.6853 46.833 53.7292 46.5796C53.7732 46.3262 53.7948 46.0825 53.7775 46.0382C53.7478 45.9626 53.5273 45.9251 53.4663 45.9852ZM64.537 46.1449C64.7302 46.2688 64.9335 46.631 65.009 46.9858C65.0505 47.1813 65.0731 48.44 65.0763 50.7384C65.0807 53.9793 65.0742 54.2233 64.9719 54.618C64.8383 55.1338 64.6474 55.4427 64.3374 55.6447C64.131 55.7792 64.0473 55.7983 63.6638 55.7988C63.277 55.7994 63.2087 55.7836 63.0783 55.6637C62.6297 55.2511 62.5934 54.9193 62.5894 51.1921C62.5859 47.8985 62.6182 47.3644 62.8538 46.8288C62.9828 46.5354 63.1494 46.3483 63.4298 46.1817C63.6864 46.0294 64.3237 46.0082 64.537 46.1449ZM37.0204 48.8488C36.9427 48.8608 36.7733 48.8949 36.6441 48.9246C36.5148 48.9542 36.2476 49.003 36.0503 49.033C35.853 49.0631 35.4753 49.1264 35.211 49.1739C34.9466 49.2213 34.514 49.2977 34.2497 49.3436C33.9853 49.3895 33.5655 49.4647 33.3167 49.5108C33.0679 49.5568 32.6952 49.6188 32.4885 49.6486C32.2817 49.6784 32.0018 49.7278 31.8665 49.7586C31.7311 49.7893 31.4372 49.8427 31.2135 49.8773C30.9897 49.9118 30.7792 49.9726 30.7456 50.0124C30.7059 50.0596 30.6905 50.4104 30.7015 51.0212L30.7183 51.9577L30.9446 51.9441C31.069 51.9366 31.298 51.9062 31.4535 51.8765C31.609 51.8468 31.8889 51.7935 32.0755 51.7581C32.4214 51.6924 32.6067 51.6809 32.6493 51.7226C32.6624 51.7354 32.6754 54.0914 32.6783 56.9583C32.6812 59.8251 32.7003 62.3797 32.7208 62.635L32.7581 63.0992L32.9619 63.0648C33.0739 63.0459 33.3056 63.0075 33.4766 62.9796C34.1351 62.8718 35.1522 62.6877 35.3143 62.6468L35.4839 62.604L35.5044 56.8929L35.5248 51.1818L35.6827 51.1401C35.7696 51.1172 36.164 51.0433 36.5591 50.9759C36.9543 50.9085 37.3222 50.8303 37.3766 50.8021C37.4646 50.7564 37.4754 50.6513 37.4742 49.8478C37.4728 48.7786 37.473 48.7791 37.0204 48.8488ZM24.8066 50.9759C24.7288 50.9888 24.4744 51.0334 24.2411 51.075C24.0079 51.1167 23.5626 51.1925 23.2516 51.2436C22.9406 51.2946 22.5716 51.3627 22.4317 51.3949C22.2917 51.427 22.0373 51.4737 21.8662 51.4986C21.4136 51.5646 20.6331 51.7044 20.3395 51.7721C20.1996 51.8044 19.9953 51.8315 19.8856 51.8324C19.7758 51.8333 19.6295 51.873 19.5605 51.9207L19.4349 52.0072L19.444 58.6633C19.4513 63.9265 19.4679 65.3283 19.5239 65.3621C19.6062 65.4119 19.8472 65.3956 20.1417 65.3203C20.2559 65.2911 20.5231 65.2423 20.7354 65.2118C21.1831 65.1477 21.8136 65.0412 22.5351 64.9077C23.416 64.7448 23.9938 64.6453 24.3445 64.596C24.5311 64.5698 24.7856 64.5153 24.91 64.475L25.1361 64.4016L25.1506 63.5487C25.1598 63.0058 25.1432 62.6699 25.1049 62.6247C25.0627 62.5751 24.9902 62.5675 24.8629 62.5996C24.763 62.6248 24.4268 62.6867 24.1157 62.7371C23.8047 62.7875 23.3595 62.8669 23.1262 62.9137C22.893 62.9605 22.6003 62.9906 22.4759 62.9806L22.2496 62.9624L22.2321 60.985C22.218 59.4025 22.2293 58.9953 22.2889 58.9466C22.3578 58.8904 22.8304 58.7933 23.7425 58.648C24.3428 58.5523 24.308 58.617 24.3066 57.5981C24.3056 56.837 24.2925 56.7052 24.2153 56.6762C24.1658 56.6576 23.9303 56.6831 23.6922 56.7329C23.1642 56.8432 22.9589 56.8763 22.5382 56.9189L22.2131 56.9518L22.2107 55.2068C22.2089 53.8947 22.2258 53.4401 22.2789 53.3741C22.3198 53.3232 22.5157 53.2603 22.7453 53.2244C22.963 53.1903 23.3446 53.1245 23.5934 53.078C23.8422 53.0316 24.2112 52.9713 24.4134 52.9441C24.9692 52.8691 25.0896 52.8269 25.1226 52.6949C25.1389 52.6295 25.1445 52.2141 25.135 51.7717C25.1163 50.9061 25.1235 50.9234 24.8066 50.9759ZM12.3589 53.1471C12.3443 53.1615 12.0919 53.2117 11.7981 53.2588C10.7335 53.4294 10.4144 53.4893 10.3451 53.5316C10.2899 53.5653 10.2753 54.2982 10.2782 56.8887C10.2814 59.7961 10.2577 60.4798 10.1582 60.3402C10.1167 60.2818 8.92269 57.6808 8.92265 57.6486C8.92263 57.6381 8.81825 57.4096 8.69068 57.1408C8.56311 56.8719 8.40706 56.5396 8.34381 56.4023C7.71032 55.0266 7.31072 54.198 7.2512 54.1368C7.1915 54.0754 7.06137 54.0832 6.47917 54.1829C6.0941 54.249 5.68996 54.3175 5.58111 54.3353C5.47226 54.353 5.35144 54.3921 5.31257 54.4222C5.22076 54.4934 5.22601 67.7326 5.31787 67.8225C5.35304 67.8569 5.48002 67.863 5.64311 67.8381C6.1228 67.7647 6.9211 67.6236 7.26777 67.5508L7.60702 67.4797L7.61664 63.901C7.62197 61.9327 7.64597 60.3029 7.67009 60.2791C7.71324 60.2367 7.81981 60.4094 7.98463 60.7889C8.03099 60.8958 8.16279 61.1954 8.27745 61.4548C8.39211 61.7142 8.52374 62.0138 8.56993 62.1206C8.61611 62.2274 8.67569 62.3648 8.7023 62.4258C8.72891 62.4868 8.88387 62.8489 9.04655 63.2304C9.20928 63.6119 9.45701 64.1862 9.59704 64.5066C9.73707 64.827 9.88478 65.1804 9.92537 65.2918C9.9659 65.4033 10.0682 65.6405 10.1526 65.819C10.2371 65.9975 10.327 66.1934 10.3526 66.2545C10.626 66.9083 10.6122 66.8926 10.9128 66.8922C11.0656 66.892 11.3513 66.8565 11.5476 66.8132C11.7439 66.7701 12.025 66.7183 12.1724 66.6981C12.6539 66.6322 12.6122 67.2895 12.6021 59.9144C12.596 55.4856 12.5739 53.3005 12.5344 53.2282C12.4773 53.1239 12.4128 53.094 12.3589 53.1471Z" fill="#141414"/>
</svg>
